<?xml version="1.0" encoding="utf-8"?>
<!-- Generator: Adobe Illustrator 14.0.0, SVG Export Plug-In . SVG Version: 6.00 Build 43363)  -->
<!DOCTYPE svg PUBLIC "-//W3C//DTD SVG 1.1//EN" "http://www.w3.org/Graphics/SVG/1.1/DTD/svg11.dtd">
<svg version="1.1" xmlns="http://www.w3.org/2000/svg" xmlns:xlink="http://www.w3.org/1999/xlink" x="0px" y="0px"
	 width="283.46px" height="283.46px" viewBox="0 0 283.46 283.46" enable-background="new 0 0 283.46 283.46" xml:space="preserve">
<g id="Layer_1" display="none">
	<circle display="inline" fill="#FF0000" stroke="#000000" stroke-width="4" cx="141.73" cy="142.474" r="139.37"/>
</g>
<g id="Layer_1_copy">
	<g>
		<g id="XMLID_1_">
			<g>
				<path fill="#FF0000" d="M179.901,96.557c-15.377,34.158,5.936,38.949-1.674,80.002c11-1.988,9.126-16.335,12.244-25.977
					c2.003,21.271,12.716,26.849,11.129,46.774c-0.787,9.655-1.702,17.208-12.03,29.537c3.819-0.1,12.444-6.608,13.331-9.669
					c0,31.111-20.469,49.577-61.321,49.577c-28.879,0-66.241-13.96-57.845-79.401c0.758,13.046,3.748,22.987,10.499,23.273
					c-3.519-12.431-3.018-21.886,0.83-35.617c2.661-9.498,12.458-17.58,14.662-24.832c3.003-9.841-3.161-26.162-2.99-35.001
					c9.097,9.512,12.401,23.73,12.988,28.336c1.259,9.626-3.662,19.01,1.731,20.611c16.407,4.893,7.281-22.442,4.349-36.332
					c-1.245-5.894-6.966-20.741-7.653-28.007c-1.087-10.942-1.516-26.133,9.383-34.716c-4.963,23.773,1.259,41.582,12.03,35.774
					c17.336-9.326,10.328-71.892-13.46-86.911c31.541,13.474,35.231,45.229,35.789,50.922c4.992,50.836-25.948,81.747-8.482,86.596
					C173.306,154.874,156.842,102.278,179.901,96.557z"/>
			</g>
			<g>
				<path fill="none" stroke="#000000" stroke-width="4" d="M109.726,150.225c-2.203,7.252-12.001,15.334-14.662,24.832
					c-3.848,13.731-4.349,23.187-0.83,35.617c-6.751-0.286-9.741-10.228-10.499-23.273c-8.396,65.441,28.965,79.401,57.845,79.401
					c40.852,0,61.321-18.466,61.321-49.577c-0.887,3.061-9.512,9.569-13.331,9.669c10.328-12.329,11.243-19.882,12.03-29.537
					c1.587-19.926-9.126-25.504-11.129-46.774c-3.118,9.642-1.244,23.988-12.244,25.977c7.609-41.053-13.703-45.844,1.674-80.002
					c-23.059,5.721-6.595,58.317-26.491,54.941c-17.465-4.85,13.475-35.76,8.482-86.596c-0.558-5.693-4.248-37.448-35.789-50.922
					c23.788,15.019,30.796,77.584,13.46,86.911c-10.771,5.807-16.993-12.001-12.03-35.774c-10.899,8.583-10.47,23.773-9.383,34.716
					c0.687,7.267,6.408,22.114,7.653,28.007c2.932,13.889,12.058,41.224-4.349,36.332c-5.393-1.602-0.472-10.985-1.731-20.611
					c-0.586-4.606-3.891-18.824-12.988-28.336C106.564,124.063,112.729,140.384,109.726,150.225z"/>
			</g>
		</g>
	</g>
</g>
<g id="Layer_3">
	<g>
		<path fill="#FFFFFF" stroke="#000000" stroke-width="4" d="M169.588,183.993v17.917h-17.917v53.75h-17.916v-53.75h-17.917v-17.917
			H169.588z"/>
	</g>
</g>
</svg>
